HIERARCHY
ROOT Hips
{
	OFFSET -0.001795 -0.223333 0.028219
	CHANNELS 6 Xposition Yposition Zposition Zrotation Yrotation Xrotation 
	JOINT LeftUpLeg
	{
		OFFSET 0.069520 -0.091406 -0.006815
		CHANNELS 3 Zrotation Yrotation Xrotation
		JOINT LeftLeg
		{
			OFFSET 0.034277 -0.375199 -0.004496
			CHANNELS 3 Zrotation Yrotation Xrotation
			JOINT LeftFoot
			{
				OFFSET -0.013596 -0.397961 -0.043693
				CHANNELS 3 Zrotation Yrotation Xrotation
				JOINT LeftToe
				{
					OFFSET 0.026358 -0.055791 0.119288
					CHANNELS 3 Zrotation Yrotation Xrotation
					End Site
					{
						OFFSET 0.000000 0.000000 0.000000
					}
				}
			}
		}
	}
	JOINT RightUpLeg
	{
		OFFSET -0.067670 -0.090522 -0.004320
		CHANNELS 3 Zrotation Yrotation Xrotation
		JOINT RightLeg
		{
			OFFSET -0.038290 -0.382569 -0.008850
			CHANNELS 3 Zrotation Yrotation Xrotation
			JOINT RightFoot
			{
				OFFSET 0.015774 -0.398415 -0.042312
				CHANNELS 3 Zrotation Yrotation Xrotation
				JOINT RightToe
				{
					OFFSET -0.025372 -0.048144 0.123348
					CHANNELS 3 Zrotation Yrotation Xrotation
					End Site
					{
						OFFSET 0.000000 0.000000 0.000000
					}
				}
			}
		}
	}
	JOINT Spine
	{
		OFFSET -0.002533 0.108963 -0.026696
		CHANNELS 3 Zrotation Yrotation Xrotation
		JOINT Spine1
		{
			OFFSET 0.005487 0.135180 0.001092
			CHANNELS 3 Zrotation Yrotation Xrotation
			JOINT Spine2
			{
				OFFSET 0.001457 0.052922 0.025425
				CHANNELS 3 Zrotation Yrotation Xrotation
				JOINT Neck
				{
					OFFSET -0.002778 0.213870 -0.042857
					CHANNELS 3 Zrotation Yrotation Xrotation
					JOINT Head
					{
						OFFSET 0.005152 0.064970 0.051349
						CHANNELS 3 Zrotation Yrotation Xrotation
						End Site
						{
							OFFSET 0.000000 0.000000 0.000000
						}
					}
				}
				JOINT LeftShoulder
				{
					OFFSET 0.078845 0.121749 -0.034090
					CHANNELS 3 Zrotation Yrotation Xrotation
					JOINT LeftArm
					{
						OFFSET 0.090977 0.030469 -0.008868
						CHANNELS 3 Zrotation Yrotation Xrotation
						JOINT LeftForeArm
						{
							OFFSET 0.259612 -0.012772 -0.027456
							CHANNELS 3 Zrotation Yrotation Xrotation
							JOINT LeftHand
							{
								OFFSET 0.249234 0.008986 -0.001171
								CHANNELS 3 Zrotation Yrotation Xrotation
								End Site
								{
									OFFSET 0.000000 0.000000 0.000000
								}
							}
						}
					}
				}
				JOINT RightShoulder
				{
					OFFSET -0.081759 0.118833 -0.038615
					CHANNELS 3 Zrotation Yrotation Xrotation
					JOINT RightArm
					{
						OFFSET -0.096012 0.032551 -0.009143
						CHANNELS 3 Zrotation Yrotation Xrotation
						JOINT RightForeArm
						{
							OFFSET -0.253742 -0.013329 -0.021401
							CHANNELS 3 Zrotation Yrotation Xrotation
							JOINT RightHand
							{
								OFFSET -0.255298 0.007772 -0.005559
								CHANNELS 3 Zrotation Yrotation Xrotation
								End Site
								{
									OFFSET 0.000000 0.000000 0.000000
								}
							}
						}
					}
				}
			}
		}
	}
}
MOTION
Frames: 15
Frame Time: 0.050000
0.000000 0.951922 0.000000 -0.549269 9.010528 5.175747 0.609620 0.145188 2.164749 -1.441955 0.262010 -8.908423 -2.082674 0.671749 8.601287 0.000000 0.000000 0.000000 1.478732 0.159777 -1.565739 -0.366140 -0.045104 -2.161402 0.626365 -0.438395 5.474583 0.000000 0.000000 0.000000 4.204012 0.185183 -4.346353 0.803326 -0.126511 -4.334340 -3.842255 2.798130 9.664922 6.962238 -1.521041 -20.770063 0.000000 0.000000 0.000000 -7.340653 -2.246356 -0.521061 -7.386816 -0.419683 -0.714811 18.717185 2.099769 0.081073 0.000000 0.000000 0.000000 4.345567 -0.114840 0.058204 7.818167 -7.116932 -0.948498 -15.117903 7.805503 -0.256813 0.000000 0.000000 0.000000 
-0.000395 0.951184 0.001971 -0.929337 9.146249 5.720917 0.815785 0.147353 2.386022 -1.293866 0.268276 -10.237185 -1.848796 0.757914 7.941192 0.000000 0.000000 0.000000 1.553883 0.129834 -1.323013 0.379898 -0.188011 -3.894923 0.127084 -1.493987 5.240993 0.000000 0.000000 0.000000 4.873640 0.207975 -4.782812 0.432486 -0.075757 -2.393526 -3.977503 3.552206 7.271550 6.991774 -1.162960 -22.230361 0.000000 0.000000 0.000000 -5.918202 -4.749027 0.561813 -8.621045 0.393845 -0.798957 18.634905 4.521450 0.363689 0.000000 0.000000 0.000000 4.545679 -2.527260 -0.913961 7.603088 -7.245514 -0.885384 -13.915834 11.213192 -0.475698 0.000000 0.000000 0.000000 
-0.001556 0.950352 0.003373 -1.023360 8.034685 5.892348 1.440833 0.096602 2.173997 -1.192437 0.273153 -9.362614 -1.997235 0.516372 8.192455 0.000000 0.000000 0.000000 1.684254 0.148015 -1.537251 0.888760 -0.241042 -4.176466 0.454478 -0.844509 5.289647 0.000000 0.000000 0.000000 5.216446 0.259413 -5.392043 -0.393926 0.354712 -3.948686 -3.138099 4.543068 9.060242 7.119960 -1.258402 -22.017657 0.000000 0.000000 0.000000 -5.730088 -5.096984 0.715413 -8.735458 -0.747549 -0.794246 20.426190 6.418088 0.644808 0.000000 0.000000 0.000000 4.724496 -0.943267 -0.219344 9.065707 -7.695221 -1.180040 -15.284184 9.963774 -0.432832 0.000000 0.000000 0.000000 
-0.003361 0.949694 0.004338 -1.040961 9.241179 5.889516 1.833597 0.077287 2.362912 -1.566672 0.262847 -9.465281 -2.333419 -0.232471 7.697120 0.000000 0.000000 0.000000 1.959768 0.106585 -1.178356 1.749207 -0.326138 -4.435376 0.691181 -0.246429 5.381126 0.000000 0.000000 0.000000 4.486494 0.263739 -5.701130 0.050793 0.144344 -3.322031 -2.902920 4.077992 8.827766 6.973185 -1.093185 -22.431959 0.000000 0.000000 0.000000 -7.458304 -6.211644 0.855518 -8.900783 0.278708 -0.822194 21.533224 5.815123 0.599783 0.000000 0.000000 0.000000 5.799685 -0.238715 0.113393 7.904219 -9.096691 -0.952261 -14.178603 9.726560 -0.377217 0.000000 0.000000 0.000000 
-0.005785 0.949203 0.004545 -0.955302 9.490015 5.783615 2.100953 0.070396 2.569180 -1.492303 0.257696 -9.099302 -3.174839 -1.764442 7.631928 0.000000 0.000000 0.000000 2.076745 0.072839 -0.905145 2.082517 -0.369193 -4.917711 0.042350 -1.648060 5.166396 0.000000 0.000000 0.000000 3.791329 0.237607 -5.438073 0.483123 -0.014955 -3.791046 -2.917536 4.129538 8.809338 6.783750 -1.020217 -22.047466 0.000000 0.000000 0.000000 -7.786939 -5.706949 0.576798 -9.665217 0.304759 -0.890801 22.421802 3.149548 0.189033 0.000000 0.000000 0.000000 5.807593 0.061369 0.255663 9.566621 -9.322396 -1.279799 -14.589605 10.593258 -0.461267 0.000000 0.000000 0.000000 
-0.008508 0.948602 0.004143 -0.770533 9.893444 5.666010 1.644768 0.080297 2.253252 -0.521029 0.235313 -8.254042 -3.999159 -3.879366 6.568300 0.000000 0.000000 0.000000 2.034916 0.058809 -0.767494 2.347670 -0.400393 -5.187036 -0.076459 -1.869819 5.081958 0.000000 0.000000 0.000000 3.004574 0.213881 -5.204164 0.825031 -0.225387 -2.722323 -2.413952 3.735260 8.041106 6.362880 -0.778065 -22.284587 0.000000 0.000000 0.000000 -9.017694 -5.726182 0.406433 -11.263237 0.412126 -1.038448 23.142891 1.713640 -0.027724 0.000000 0.000000 0.000000 6.130122 1.203476 0.733864 10.795450 -9.150624 -1.505600 -14.504217 10.038019 -0.413667 0.000000 0.000000 0.000000 
-0.011495 0.948390 0.003271 -0.495136 9.626309 5.675731 1.694370 0.059740 1.955137 -0.612708 0.232370 -7.816483 -4.327289 -4.482764 6.629570 0.000000 0.000000 0.000000 2.135267 0.098062 -1.109788 2.103483 -0.374015 -5.011431 -0.330604 -2.329932 4.597211 0.000000 0.000000 0.000000 2.524328 0.188181 -4.782917 1.037852 -0.307247 -2.945419 -2.680788 4.454569 8.361594 6.510033 -0.757036 -22.450990 0.000000 0.000000 0.000000 -9.781994 -5.941182 0.280511 -12.232400 0.284578 -1.105104 23.198818 1.275857 -0.125968 0.000000 0.000000 0.000000 7.220719 1.285800 0.884646 11.636629 -9.192535 -1.688005 -13.303721 9.824243 -0.331791 0.000000 0.000000 0.000000 
-0.014498 0.948709 0.002306 -0.290300 9.449163 5.633489 1.691486 0.053607 1.838965 -0.325249 0.219654 -7.365141 -4.740375 -5.233329 6.696937 0.000000 0.000000 0.000000 2.346481 0.113628 -1.266555 2.047397 -0.364741 -4.874534 -0.439718 -2.597188 4.604137 0.000000 0.000000 0.000000 2.383803 0.170304 -4.429664 0.964911 -0.312697 -2.374287 -2.478408 4.535339 8.144573 6.133084 -0.610615 -22.093209 0.000000 0.000000 0.000000 -11.594609 -5.633169 -0.147172 -13.490791 0.290816 -1.217371 23.331762 1.428180 -0.082739 0.000000 0.000000 0.000000 8.222513 1.780872 1.153855 12.837382 -9.027154 -1.916177 -12.950944 9.374310 -0.286485 0.000000 0.000000 0.000000 
-0.017437 0.949235 0.001403 -0.034874 9.102272 5.521573 1.685560 0.045618 1.678168 -0.326945 0.209325 -6.742162 -5.301337 -6.327101 6.702475 0.000000 0.000000 0.000000 2.469330 0.098684 -1.173163 1.948453 -0.357619 -4.969635 -0.161715 -1.964989 4.571920 0.000000 0.000000 0.000000 2.000532 0.142566 -3.866596 1.212417 -0.433605 -2.252274 -2.695354 4.919616 8.523846 5.920322 -0.420156 -22.429053 0.000000 0.000000 0.000000 -12.884299 -5.976980 -0.254637 -15.185524 1.176244 -1.451338 22.853345 2.439639 0.091061 0.000000 0.000000 0.000000 9.318504 2.233812 1.467506 14.361769 -8.818175 -2.221871 -12.020776 8.757944 -0.205395 0.000000 0.000000 0.000000 
-0.020046 0.949742 0.000770 -0.029634 8.831512 5.343319 2.149133 0.030181 1.840251 -0.537902 0.215649 -6.669821 -5.536159 -6.548571 7.073133 0.000000 0.000000 0.000000 2.967505 0.050603 -0.869070 1.409197 -0.327977 -5.422312 -0.135283 -1.940447 4.632339 0.000000 0.000000 0.000000 2.253902 0.116499 -3.291483 1.107087 -0.403619 -2.003803 -2.735377 4.806556 8.637514 5.315545 -0.110333 -22.517167 0.000000 0.000000 0.000000 -14.606743 -5.901894 -0.528865 -16.882396 2.566280 -1.780484 21.827517 2.485587 0.125083 0.000000 0.000000 0.000000 10.615174 2.578492 1.688851 16.473121 -8.675409 -2.625594 -11.514732 8.429281 -0.171649 0.000000 0.000000 0.000000 
-0.022064 0.949025 0.000488 0.140973 8.028562 5.320621 2.370996 0.012405 1.685935 -0.834128 0.215300 -5.889446 -5.240063 -6.462533 6.480369 0.000000 0.000000 0.000000 3.128745 0.038121 -0.836096 1.538434 -0.338882 -5.553790 -0.382999 -2.527401 4.496471 0.000000 0.000000 0.000000 2.375923 0.098788 -2.920015 1.065364 -0.425843 -1.411565 -3.062515 4.878195 8.512633 4.891805 0.104756 -22.701677 0.000000 0.000000 0.000000 -16.335230 -6.144919 -0.634045 -18.541253 4.802337 -2.241806 20.543830 1.995614 0.079409 0.000000 0.000000 0.000000 11.831069 3.287791 2.071961 19.174086 -8.448339 -3.116135 -10.501113 8.692908 -0.157072 0.000000 0.000000 0.000000 
-0.023292 0.948186 0.000615 0.146498 7.145041 5.084348 2.640468 0.016795 1.905626 -1.214032 0.220999 -5.086848 -4.632220 -5.855953 5.737845 0.000000 0.000000 0.000000 3.594670 0.023956 -0.831921 1.527177 -0.319870 -5.074158 -0.676654 -3.142102 4.099173 0.000000 0.000000 0.000000 2.858515 0.064262 -2.305075 1.065569 -0.470686 -0.722355 -3.222692 5.075153 8.032655 4.976887 0.093638 -23.197188 0.000000 0.000000 0.000000 -18.752708 -6.689521 -0.703646 -20.413648 7.144005 -2.791322 19.267109 0.844077 -0.049169 0.000000 0.000000 0.000000 14.613176 3.546859 2.351736 21.189928 -8.198718 -3.485432 -9.951362 9.452315 -0.183490 0.000000 0.000000 0.000000 
-0.023605 0.946381 0.001430 0.226125 5.753888 4.989406 2.562324 0.054704 2.294912 -1.546528 0.238087 -4.739819 -3.597484 -4.444769 4.948326 0.000000 0.000000 0.000000 3.640775 0.007062 -0.778501 1.606086 -0.305597 -4.570251 -0.795936 -3.249031 3.342522 0.000000 0.000000 0.000000 3.237995 0.030042 -1.776080 1.339066 -0.660126 0.270661 -3.811188 5.433329 7.308774 5.333820 -0.109882 -23.319349 0.000000 0.000000 0.000000 -21.134186 -7.353053 -0.671547 -22.653248 9.331449 -3.445538 18.600926 -0.701414 -0.224022 0.000000 0.000000 0.000000 16.729125 4.474457 2.927136 24.271134 -7.972599 -4.011722 -9.468213 11.088489 -0.241109 0.000000 0.000000 0.000000 
-0.023108 0.945175 0.003139 0.225461 4.325398 4.685801 2.292381 0.106072 2.679894 -1.514396 0.228413 -3.931581 -2.200049 -2.440809 3.820482 0.000000 0.000000 0.000000 3.637935 -0.022191 -0.610600 1.775067 -0.285379 -3.514491 -0.903394 -3.228336 2.381669 0.000000 0.000000 0.000000 4.080501 -0.012375 -1.263924 1.193202 -0.626491 0.982551 -3.960711 4.993086 6.930380 5.590746 -0.327233 -23.787115 0.000000 0.000000 0.000000 -23.504962 -7.742992 -0.414570 -25.958593 11.171681 -4.420943 18.309971 -2.727488 -0.441113 0.000000 0.000000 0.000000 18.668563 5.029892 3.082865 26.937611 -6.980763 -4.299056 -8.230611 13.066801 -0.243926 0.000000 0.000000 0.000000 
-0.022057 0.944129 0.006249 0.081318 2.289915 4.489389 1.812698 0.178226 3.128289 -0.874506 0.176437 -3.293262 -1.142072 -0.673655 3.380456 0.000000 0.000000 0.000000 3.540811 -0.091089 -0.157588 2.183500 -0.309451 -3.500792 -0.819863 -3.039145 2.254592 0.000000 0.000000 0.000000 5.003248 -0.050559 -0.899064 1.355600 -0.725651 1.590915 -4.290475 4.944201 6.268631 5.660052 -0.495153 -23.684275 0.000000 0.000000 0.000000 -25.757317 -8.370708 0.022915 -29.423156 12.772009 -5.476821 17.892227 -4.431780 -0.609842 0.000000 0.000000 0.000000 20.308162 5.582458 3.210086 30.462783 -6.145350 -4.674376 -7.148649 16.185375 -0.233305 0.000000 0.000000 0.000000 
